<svg width="129" height="48" viewBox="0 0 129 48" fill="none" xmlns="http://www.w3.org/2000/svg">
<path fill-rule="evenodd" clip-rule="evenodd" d="M17.5831 6.72656H25.3455L33.9378 15.3313L35.8773 17.2736L31.9983 21.1582L30.0589 19.2159L21.4666 10.6111L12.5495 19.5411L10.61 21.4834L6.72656 17.5988L8.66604 15.6565L17.5831 6.72656ZM17.8943 18.5293H24.696L28.0968 21.9351L29.7973 23.638L26.3964 27.0437L24.696 25.3409L21.2952 21.9351L17.8943 25.3409L16.1939 27.0437L12.7931 23.638L14.4935 21.9351L17.8943 18.5293Z" fill="white"/>
<path d="M41.2588 6.75391V10.4381H49.2335C48.348 10.4381 47.6284 11.3095 47.6284 12.3817V26.9959H51.609V10.4381H53.9979H57.1814V6.75391H51.609H47.6284H44.4449H41.2588Z" fill="white"/>
<path d="M64.5074 26.9958C64.032 26.9958 63.4834 26.9226 62.8617 26.7763C62.2583 26.6483 61.6823 26.3923 61.1338 26.0084C60.6035 25.6061 60.1464 25.0484 59.7624 24.3353C59.3967 23.6222 59.2139 22.6805 59.2139 21.5102V11.7734H62.4229V20.7697C62.4229 21.5377 62.5052 22.1594 62.6697 22.6348C62.8343 23.0919 63.072 23.4485 63.3829 23.7044C63.6937 23.9604 64.0686 24.1341 64.5074 24.2256C64.9462 24.2987 65.4399 24.3353 65.9885 24.3353C66.5005 24.3353 66.9576 24.2896 67.3599 24.1981C67.7804 24.0884 68.1461 23.9513 68.457 23.7867C68.7678 23.6222 69.0421 23.4393 69.2798 23.2382C69.5175 23.0188 69.7186 22.7993 69.8832 22.5799C70.2489 22.0679 70.5049 21.4828 70.6512 20.8245V11.7734H73.8328V19.4376V26.9958H70.6512L70.898 23.0462L70.706 22.7445C70.6512 23.4759 70.4592 24.1159 70.1301 24.6644C69.8192 25.1947 69.3986 25.6335 68.8684 25.9809C68.3381 26.3283 67.7073 26.5843 66.9759 26.7489C66.2445 26.9135 65.4216 26.9958 64.5074 26.9958Z" fill="white"/>
<path d="M78.992 15.998C79.0651 15.3946 79.248 14.8552 79.5405 14.3798C79.8514 13.9043 80.2719 13.5021 80.8022 13.1729C81.3508 12.8438 82.0273 12.597 82.8318 12.4324C83.6364 12.2678 84.6055 12.1855 85.7392 12.1855H86.6443V15.2849H85.9312C84.8158 15.2849 83.865 15.3763 83.0787 15.5591C82.3107 15.7237 81.6707 15.934 81.1588 16.19C80.6468 16.446 80.2445 16.7202 79.9519 17.0128C79.6777 17.3054 79.4765 17.5888 79.3485 17.8631C79.2205 18.1191 79.1383 18.3476 79.1017 18.5487C79.0834 18.7316 79.0743 18.8322 79.0743 18.8505V26.9964H75.8652V12.1855H79.0743L78.7451 15.6689L78.9646 15.9431L78.992 15.998Z" fill="white"/>
<path d="M98.2993 11.3618C99.3233 11.3618 100.219 11.5173 100.987 11.8281C101.773 12.1389 102.423 12.5778 102.935 13.1446C103.465 13.7115 103.858 14.3971 104.114 15.2017C104.388 15.9879 104.525 16.8565 104.525 17.8073L104.498 20.6049C104.498 21.6106 104.361 22.5157 104.087 23.3203C103.812 24.1065 103.41 24.7739 102.88 25.3225C102.349 25.871 101.691 26.2916 100.905 26.5841C100.137 26.8584 99.2593 26.9956 98.2719 26.9956C97.449 26.9956 96.6628 26.9224 95.9131 26.7761C95.1817 26.6481 94.5326 26.4287 93.9657 26.1179C93.3989 25.807 92.9235 25.4139 92.5395 24.9385C92.1738 24.4448 91.9452 23.8597 91.8538 23.1831L91.6344 23.4574L91.8593 26.9956H88.6777L88.7545 6.72656H91.9361L91.6344 14.8451L91.8538 15.1468C91.9452 14.4886 92.1738 13.9217 92.5395 13.4463C92.9235 12.9526 93.3989 12.5504 93.9657 12.2395C94.5509 11.9287 95.2091 11.7092 95.9405 11.5812C96.6719 11.435 97.4582 11.3618 98.2993 11.3618ZM91.9361 20.9889C91.9727 21.0621 92.0549 21.2815 92.1829 21.6472C92.3292 22.0129 92.5852 22.3969 92.9509 22.7991C93.3166 23.2014 93.8286 23.5671 94.4869 23.8962C95.1451 24.2254 96.0137 24.3899 97.0925 24.3899C97.6959 24.3899 98.2536 24.3077 98.7656 24.1431C99.2775 23.9785 99.7255 23.7408 100.11 23.43C100.493 23.1191 100.795 22.726 101.015 22.2506C101.234 21.7569 101.344 21.1992 101.344 20.5775L101.316 17.8073C101.316 17.1856 101.207 16.6371 100.987 16.1617C100.786 15.668 100.493 15.2657 100.11 14.9548C99.7255 14.6257 99.2775 14.3789 98.7656 14.2143C98.2536 14.0497 97.6959 13.9674 97.0925 13.9674C96.0685 13.9674 95.2274 14.0863 94.5691 14.324C93.9109 14.5617 93.3898 14.8543 93.0058 15.2017C92.6401 15.5491 92.3749 15.924 92.2104 16.3262C92.0641 16.7102 91.9727 17.0393 91.9361 17.3136V20.9889Z" fill="white"/>
<path d="M114.429 11.3613C115.856 11.3613 117.062 11.5533 118.05 11.9373C119.055 12.303 119.869 12.8058 120.491 13.4458C121.113 14.0675 121.561 14.7989 121.835 15.64C122.127 16.4811 122.274 17.368 122.274 18.3005V19.7816C122.274 20.7141 122.118 21.6192 121.807 22.4969C121.515 23.3563 121.039 24.1243 120.381 24.8008C119.741 25.4591 118.927 25.9894 117.94 26.3916C116.953 26.7939 115.782 26.9951 114.429 26.9951C113.04 26.9951 111.851 26.7939 110.864 26.3916C109.876 25.9894 109.063 25.4591 108.423 24.8008C107.783 24.1243 107.307 23.3563 106.996 22.4969C106.704 21.6192 106.558 20.7141 106.558 19.7816V18.3005C106.558 17.368 106.695 16.4811 106.969 15.64C107.243 14.7989 107.691 14.0675 108.313 13.4458C108.935 12.8058 109.739 12.303 110.727 11.9373C111.732 11.5533 112.967 11.3613 114.429 11.3613ZM109.767 19.7816C109.767 20.6593 109.895 21.3907 110.151 21.9758C110.425 22.5609 110.781 23.0363 111.22 23.402C111.659 23.7495 112.153 23.9963 112.701 24.1426C113.268 24.2889 113.844 24.362 114.429 24.362C115.014 24.362 115.581 24.2797 116.13 24.1152C116.697 23.9506 117.2 23.6946 117.638 23.3472C118.077 22.9815 118.425 22.5061 118.681 21.921C118.955 21.3358 119.092 20.6227 119.092 19.7816V18.3005C119.092 17.5508 118.964 16.9017 118.708 16.3531C118.452 15.8046 118.105 15.3566 117.666 15.0092C117.245 14.6435 116.752 14.3692 116.185 14.1864C115.636 14.0035 115.051 13.9121 114.429 13.9121C113.789 13.9121 113.186 14.0035 112.619 14.1864C112.052 14.3692 111.549 14.6435 111.111 15.0092C110.69 15.3566 110.361 15.8046 110.123 16.3531C109.885 16.9017 109.767 17.5508 109.767 18.3005V19.7816Z" fill="white"/>
<path d="M84.9858 40.239V33.4298H85.6797V34.54L85.5687 34.3457C85.766 34.0312 86.0282 33.7814 86.355 33.5963C86.6881 33.4113 87.0674 33.3188 87.493 33.3188C87.9617 33.3188 88.3781 33.4329 88.742 33.6611C89.112 33.8831 89.4019 34.1884 89.6116 34.577C89.8275 34.9656 89.9354 35.4097 89.9354 35.9092C89.9354 36.4027 89.8275 36.8467 89.6116 37.2415C89.4019 37.63 89.112 37.9384 88.742 38.1666C88.3781 38.3887 87.9617 38.4997 87.493 38.4997C87.0674 38.4997 86.6819 38.4041 86.3365 38.2129C85.9973 38.0155 85.7414 37.738 85.5687 37.3802L85.6797 37.2785V40.239H84.9858ZM87.456 37.8058C87.789 37.8058 88.0851 37.7226 88.3441 37.556C88.6094 37.3895 88.816 37.1644 88.964 36.8807C89.1182 36.5908 89.1953 36.267 89.1953 35.9092C89.1953 35.5453 89.1182 35.2215 88.964 34.9378C88.816 34.6541 88.6094 34.429 88.3441 34.2625C88.0851 34.0959 87.789 34.0127 87.456 34.0127C87.1229 34.0127 86.8207 34.0959 86.5493 34.2625C86.2841 34.429 86.0713 34.6572 85.911 34.9471C85.7568 35.2308 85.6797 35.5515 85.6797 35.9092C85.6797 36.267 85.7568 36.5908 85.911 36.8807C86.0713 37.1644 86.2841 37.3895 86.5493 37.556C86.8207 37.7226 87.1229 37.8058 87.456 37.8058ZM92.5905 38.4997C92.276 38.4997 91.9954 38.4411 91.7487 38.3239C91.5019 38.2006 91.3077 38.034 91.1658 37.8243C91.0239 37.6146 90.953 37.3741 90.953 37.1027C90.953 36.8437 91.0085 36.6093 91.1195 36.3996C91.2306 36.1837 91.4033 36.0018 91.6376 35.8537C91.872 35.7057 92.1711 35.6009 92.535 35.5392L94.4779 35.2154V35.8445L92.7016 36.1405C92.3438 36.2022 92.0848 36.3163 91.9244 36.4828C91.7702 36.6494 91.6931 36.8467 91.6931 37.0749C91.6931 37.297 91.7795 37.4851 91.9522 37.6393C92.1311 37.7935 92.3593 37.8706 92.6368 37.8706C92.976 37.8706 93.2721 37.7997 93.525 37.6578C93.7778 37.5098 93.9752 37.3124 94.1171 37.0657C94.2589 36.819 94.3298 36.5445 94.3298 36.2423V34.9841C94.3298 34.688 94.2219 34.4475 94.006 34.2625C93.7902 34.0774 93.5095 33.9849 93.1641 33.9849C92.8619 33.9849 92.5967 34.062 92.3685 34.2162C92.1403 34.3642 91.9707 34.5585 91.8597 34.7991L91.2306 34.4567C91.3231 34.247 91.468 34.0558 91.6654 33.8831C91.8689 33.7105 92.1002 33.5748 92.3593 33.4761C92.6183 33.3712 92.8866 33.3188 93.1641 33.3188C93.528 33.3188 93.8488 33.3897 94.1263 33.5316C94.41 33.6734 94.629 33.8708 94.7832 34.1237C94.9435 34.3704 95.0237 34.6572 95.0237 34.9841V38.3887H94.3298V37.3988L94.4316 37.5005C94.3453 37.6856 94.2096 37.8552 94.0245 38.0094C93.8457 38.1574 93.6329 38.2777 93.3862 38.3702C93.1456 38.4565 92.8804 38.4997 92.5905 38.4997ZM96.4509 38.3887V33.4298H97.1448V34.244L97.0523 34.1237C97.1695 33.8893 97.3452 33.7043 97.5796 33.5686C97.8202 33.4329 98.11 33.3651 98.4493 33.3651H98.7638V34.0589H98.329C97.9713 34.0589 97.6845 34.1699 97.4686 34.392C97.2527 34.614 97.1448 34.9286 97.1448 35.3356V38.3887H96.4509ZM101.474 38.4442C101.029 38.4442 100.687 38.3147 100.447 38.0556C100.206 37.7966 100.086 37.4265 100.086 36.9454V34.1237H99.1699V33.4298H99.4012C99.6109 33.4298 99.7774 33.362 99.9007 33.2263C100.024 33.0844 100.086 32.9086 100.086 32.6989V32.2826H100.78V33.4298H101.871V34.1237H100.78V36.9454C100.78 37.112 100.804 37.26 100.854 37.3895C100.903 37.5129 100.986 37.6115 101.103 37.6856C101.227 37.7596 101.39 37.7966 101.594 37.7966C101.643 37.7966 101.702 37.7935 101.77 37.7873C101.837 37.7812 101.896 37.775 101.945 37.7688V38.3887C101.871 38.4072 101.788 38.4195 101.696 38.4257C101.603 38.438 101.529 38.4442 101.474 38.4442ZM103.164 38.3887V33.4298H103.858V34.392L103.7 34.355C103.824 34.0343 104.024 33.7814 104.302 33.5963C104.585 33.4113 104.912 33.3188 105.282 33.3188C105.634 33.3188 105.948 33.399 106.226 33.5593C106.51 33.7197 106.732 33.9417 106.892 34.2255C107.059 34.503 107.142 34.8176 107.142 35.1691V38.3887H106.448V35.4374C106.448 35.1352 106.393 34.8792 106.282 34.6695C106.177 34.4598 106.026 34.2995 105.828 34.1884C105.637 34.0713 105.415 34.0127 105.162 34.0127C104.909 34.0127 104.684 34.0713 104.487 34.1884C104.289 34.2995 104.135 34.4629 104.024 34.6788C103.913 34.8885 103.858 35.1414 103.858 35.4374V38.3887H103.164ZM110.725 38.4997C110.262 38.4997 109.843 38.3887 109.466 38.1666C109.096 37.9384 108.803 37.627 108.587 37.2322C108.372 36.8375 108.264 36.3903 108.264 35.8907C108.264 35.3912 108.368 34.9502 108.578 34.5678C108.788 34.1792 109.072 33.8739 109.429 33.6519C109.793 33.4298 110.2 33.3188 110.651 33.3188C111.008 33.3188 111.326 33.3866 111.603 33.5223C111.887 33.6519 112.128 33.8307 112.325 34.0589C112.522 34.281 112.674 34.5338 112.778 34.8176C112.883 35.0951 112.936 35.3819 112.936 35.678C112.936 35.7396 112.933 35.8106 112.926 35.8907C112.92 35.9648 112.911 36.0419 112.899 36.122H108.708V35.4744H112.501L112.168 35.752C112.223 35.4127 112.183 35.1105 112.048 34.8453C111.918 34.5739 111.73 34.3611 111.483 34.207C111.236 34.0466 110.959 33.9664 110.651 33.9664C110.342 33.9664 110.055 34.0466 109.79 34.207C109.531 34.3673 109.328 34.5924 109.18 34.8823C109.031 35.166 108.973 35.5053 109.004 35.9C108.973 36.2947 109.035 36.6401 109.189 36.9362C109.349 37.2261 109.565 37.4512 109.836 37.6115C110.114 37.7719 110.41 37.8521 110.725 37.8521C111.088 37.8521 111.394 37.7657 111.64 37.593C111.887 37.4203 112.088 37.2045 112.242 36.9454L112.834 37.26C112.735 37.482 112.584 37.6886 112.381 37.8798C112.177 38.0649 111.933 38.216 111.65 38.3332C111.372 38.4442 111.064 38.4997 110.725 38.4997ZM114.159 38.3887V33.4298H114.853V34.244L114.76 34.1237C114.878 33.8893 115.053 33.7043 115.288 33.5686C115.528 33.4329 115.818 33.3651 116.157 33.3651H116.472V34.0589H116.037C115.679 34.0589 115.393 34.1699 115.177 34.392C114.961 34.614 114.853 34.9286 114.853 35.3356V38.3887H114.159ZM119.006 38.4997C118.531 38.4997 118.115 38.3794 117.757 38.1389C117.399 37.8983 117.14 37.5714 116.98 37.1582L117.563 36.8807C117.704 37.1829 117.902 37.4234 118.155 37.6023C118.414 37.7812 118.697 37.8706 119.006 37.8706C119.302 37.8706 119.552 37.7997 119.755 37.6578C119.959 37.5098 120.061 37.3186 120.061 37.0842C120.061 36.9115 120.011 36.7758 119.913 36.6771C119.814 36.5723 119.7 36.4921 119.57 36.4366C119.441 36.3811 119.327 36.341 119.228 36.3163L118.516 36.1128C118.059 35.9833 117.729 35.8013 117.526 35.5669C117.322 35.3326 117.22 35.0612 117.22 34.7528C117.22 34.4629 117.294 34.21 117.442 33.9942C117.59 33.7783 117.791 33.6118 118.044 33.4946C118.297 33.3774 118.577 33.3188 118.886 33.3188C119.305 33.3188 119.684 33.4298 120.024 33.6519C120.369 33.8677 120.613 34.1699 120.754 34.5585L120.162 34.8361C120.039 34.5585 119.86 34.3426 119.626 34.1884C119.398 34.0281 119.142 33.9479 118.858 33.9479C118.58 33.9479 118.358 34.0188 118.192 34.1607C118.025 34.3026 117.942 34.4814 117.942 34.6973C117.942 34.8638 117.985 34.9964 118.071 35.0951C118.158 35.1938 118.256 35.2678 118.368 35.3171C118.485 35.3665 118.586 35.4035 118.673 35.4282L119.496 35.6687C119.897 35.7859 120.209 35.9678 120.431 36.2145C120.659 36.4613 120.773 36.7511 120.773 37.0842C120.773 37.3556 120.696 37.5992 120.542 37.8151C120.394 38.0309 120.187 38.2006 119.922 38.3239C119.657 38.4411 119.351 38.4997 119.006 38.4997Z" fill="white"/>
</svg>
